<svg width="418" height="66" viewBox="0 0 418 66" fill="none" xmlns="http://www.w3.org/2000/svg">
<path d="M24.9093 58.6854C20.4614 58.6854 16.0802 57.9245 11.7671 56.404C7.48114 54.8571 3.55876 52.5084 2.15753e-06 49.3585L7.96639 39.9101C11.0128 42.3664 13.8562 44.1944 16.4987 45.3962C19.1412 46.5959 22.0381 47.1972 25.1936 47.1972C27.5928 47.1972 29.4386 46.7702 30.7331 45.9169C32.054 45.0345 32.7138 43.7681 32.7138 42.1143L32.7138 41.9526C32.7138 41.0716 32.5789 40.3403 32.3098 39.7523C31.9852 39.1643 31.4596 38.6186 30.7331 38.1104C29.9239 37.6306 28.7914 37.135 27.3363 36.6288C26.0954 36.1477 24.4651 35.6554 22.4441 35.1486C22.173 35.0681 21.9039 34.9889 21.6342 34.9077C18.7227 34.2405 16.067 33.4538 13.6678 32.5451C11.2409 31.6938 9.19209 30.5989 7.52146 29.2625C5.84885 27.9565 4.5544 26.3674 3.6381 24.5004C2.7489 22.578 2.30463 20.2299 2.30463 17.4529L2.30463 17.2925C2.30463 14.7583 2.77468 12.4366 3.71941 10.3294C4.71703 8.19386 6.13115 6.36581 7.96639 4.84332C9.79899 3.29642 11.9959 2.08014 14.557 1.2011C17.091 0.399265 19.8809 -8.69023e-07 22.9287 -1.00224e-06C27.2417 -1.19077e-06 31.1906 0.628263 34.7751 1.8815C38.4152 3.16244 41.7584 5.01821 44.8048 7.44746L37.8493 17.3737C34.8306 15.3721 32.1472 13.8905 29.8016 12.9303C27.4302 11.943 25.0845 11.4494 22.766 11.4494C20.5275 11.4494 18.8694 11.8895 17.7925 12.7706C16.6329 13.6239 16.0538 14.7444 16.0538 16.1323L16.0538 16.2927C16.0538 17.28 16.2547 18.0818 16.66 18.6955C16.9826 19.337 17.5618 19.9105 18.3987 20.4167C19.2344 20.8964 20.4462 21.3921 22.0375 21.8969C23.0886 22.219 24.3296 22.5654 25.7582 22.9376C26.459 23.1257 27.2008 23.3263 27.9822 23.5382C30.946 24.3143 33.5752 25.1788 35.8673 26.1403C38.1851 27.1283 40.138 28.2759 41.73 29.5833C43.3748 30.9711 44.588 32.5596 45.3701 34.3474C46.1522 36.1365 46.5429 38.2688 46.5429 40.7528L46.5429 40.9132C46.5429 43.6869 46.0173 46.1709 44.9661 48.3587C43.9685 50.5457 42.5121 52.4001 40.5975 53.9226C38.6572 55.4709 36.3657 56.6429 33.7233 57.4461C31.0008 58.271 28.0635 58.6854 24.9093 58.6854Z" fill="#FFFFFF"/>
<path d="M84.0294 58.6063C79.5537 58.6063 75.4435 57.8387 71.6964 56.3057C67.9505 54.7172 64.7144 52.5922 61.9926 49.9287C59.3501 47.3199 57.2736 44.2644 55.7656 40.7654C54.2827 37.2399 53.5429 33.4882 53.5429 29.5047L53.5429 29.3431C53.5429 25.3062 54.2827 21.5399 55.7656 18.0402C57.302 14.5445 59.4056 11.45 62.0739 8.75745C64.7957 6.04178 68.0576 3.9029 71.8583 2.34148C75.6055 0.780712 79.7163 -1.14407e-06 84.1914 -1.33969e-06C88.7464 -1.53879e-06 92.8843 0.780711 96.6044 2.34148C100.352 3.90224 103.56 6.0134 106.229 8.67825C108.923 11.3418 111.014 14.4105 112.497 17.8785C113.98 21.3782 114.719 25.1458 114.719 29.1827L114.719 29.3431C114.719 33.3265 113.979 37.0802 112.497 40.605C110.959 44.077 108.829 47.184 106.107 49.9287C103.466 52.5922 100.244 54.7172 96.4437 56.3057C92.7223 57.8387 88.5844 58.6063 84.0294 58.6063ZM84.1914 46.6996C86.5092 46.6996 88.6658 46.2963 90.661 45.4886C92.6562 44.6009 94.3546 43.3768 95.7562 41.816C97.239 40.281 98.3715 38.4384 99.153 36.2843C99.9886 34.16 100.407 31.901 100.407 29.5047L100.407 29.3431C100.407 26.8689 99.9886 24.5802 99.153 22.481C98.3438 20.3559 97.1855 18.5114 95.6749 16.9506C94.192 15.3919 92.4533 14.1545 90.458 13.2391C88.4919 12.3502 86.3492 11.9067 84.0294 11.9067C81.7115 11.9067 79.5537 12.3502 77.5604 13.2391C75.591 14.0733 73.9071 15.2849 72.5056 16.8701C71.0227 18.4309 69.8644 20.2477 69.0294 22.3206C68.1925 24.4192 67.776 26.7066 67.776 29.1827L67.776 29.3431C67.776 31.74 68.1925 34.0247 69.0294 36.2038C69.8651 38.3038 71.0233 40.147 72.5056 41.7355C73.9864 43.3233 75.7258 44.5482 77.7211 45.4074C79.7156 46.2693 81.8735 46.6996 84.1914 46.6996Z" fill="#FFFFFF"/>
<path d="M121.758 -1.70471e-09L121.719 0L121.719 58.6149L153.439 58.6149L153.439 46.5445L135.791 46.5445L135.791 5.39635L121.758 -1.70471e-09Z" fill="#FFFFFF"/>
<path d="M160.439 58.6076L174.513 58.6076L174.513 20.6358L160.439 15.2242L160.439 58.6076Z" fill="#FFFFFF"/>
<path d="M174.513 -6.15182e-07L160.439 0L160.439 7.19602L174.513 12.6069L174.513 -6.15182e-07Z" fill="#FFFFFF"/>
<path d="M204.779 58.6406L181.513 58.6406L181.513 0L204.779 -1.01701e-06C214.248 -1.43089e-06 221.856 2.81268 227.601 8.44133C233.455 14.0423 236.382 20.936 236.382 29.1226C236.382 37.3079 233.455 44.4914 227.601 50.1999C221.856 55.8272 214.248 58.6406 204.779 58.6406ZM204.779 46.6448C214.813 46.6448 220.425 40.7277 221.612 29.3635C221.612 19.1034 216.001 13.3144 204.779 11.9951L195.592 11.9951L195.592 46.6448L204.779 46.6448Z" fill="#FFFFFF"/>
<path d="M257.455 58.6149L243.382 58.6149L243.382 0L267.726 -1.06409e-06C282.067 -1.69097e-06 289.71 6.75386 290.654 20.2636C290.654 27.1256 288.308 32.3075 283.618 35.8059C278.953 39.3306 273.103 41.0947 266.068 41.0947L258.224 29.2645L266.918 29.2645C272.876 29.2645 276.041 26.3984 276.419 20.6668C276.419 15.0427 273.158 12.1489 266.634 11.9892L257.454 11.9892L257.455 58.6149Z" fill="#FFFFFF"/>
<path d="M349.399 58.5884L333.263 58.5884L312.495 28.1354L323.978 28.1354C329.776 28.1354 332.82 25.4837 333.117 20.1824C333.117 14.8005 329.99 12.0684 323.734 11.9892L311.726 11.9892L311.726 58.6149L297.654 58.6149L297.654 0L324.828 -1.18783e-06C332.429 -1.5201e-06 338.279 2.04516 342.378 6.13549C345.694 9.49856 347.351 13.9004 347.351 19.3357C347.351 28.8626 343.241 34.9315 335.018 37.5415L349.399 58.5884Z" fill="#FFFFFF"/>
<path d="M415.181 17.8275C413.702 14.3674 411.619 11.3093 408.931 8.65387C406.273 5.9958 403.073 3.89105 399.337 2.33437C395.627 0.77834 391.501 -1.53435e-06 386.96 -1.33585e-06C382.497 -1.1408e-06 378.4 0.778341 374.664 2.33437C370.874 3.89105 367.622 6.02409 364.905 8.73348C362.246 11.4179 360.147 14.5029 358.617 17.9894C357.139 21.4784 356.399 25.2339 356.399 29.2585L356.399 29.4204C356.399 33.3911 357.139 37.1334 358.617 40.6481C360.121 44.1365 362.19 47.1828 364.826 49.7836C367.232 52.1377 370.061 54.0464 373.27 55.5557L382.806 46.0367C382.021 45.8366 381.251 45.5965 380.51 45.2767C378.521 44.4188 376.788 43.1983 375.309 41.6153C373.831 40.031 372.674 38.1947 371.841 36.1005C371.008 33.9266 370.591 31.6469 370.591 29.2585L370.591 29.0993C370.591 26.6301 371.009 24.349 371.841 22.2568C372.674 20.1895 373.831 18.3782 375.309 16.8222C376.706 15.2412 378.387 14.0325 380.349 13.2015C382.339 12.3153 384.487 11.8732 386.8 11.8732C389.11 11.8732 391.247 12.3153 393.209 13.2015C395.198 14.1134 396.932 15.3477 398.411 16.9031C399.917 18.4591 401.073 20.2987 401.879 22.4166C402.709 24.5102 403.127 26.7906 403.127 29.2585L403.127 29.4204C403.127 31.8087 402.709 34.0635 401.879 36.1807C401.099 38.3289 399.97 40.1645 398.492 41.6949C397.094 43.2509 395.401 44.4727 393.412 45.3577C392.648 45.6662 391.855 45.8959 391.045 46.086L400.497 55.5208C403.705 54.0148 406.497 52.1193 408.811 49.783C411.527 47.0472 413.651 43.949 415.182 40.4876C416.66 36.9729 417.399 33.2285 417.399 29.2579L417.399 29.0987C417.398 25.0734 416.659 21.3159 415.181 17.8275Z" fill="#FFFFFF"/>
<path d="M386.967 46.5864L406.418 66.0009C403.79 63.4895 400.887 61.5618 397.687 60.2637C394.35 58.9267 390.878 58.2569 387.276 58.2569C387.228 58.2569 387.177 58.2569 387.127 58.2569C387.07 58.2569 387.009 58.2629 386.952 58.2668L386.952 58.2681C386.948 58.2681 386.947 58.2681 386.942 58.2681C386.939 58.2681 386.936 58.2681 386.931 58.2681L386.931 58.2668C386.873 58.2629 386.814 58.2569 386.757 58.2569C386.706 58.2569 386.657 58.2569 386.608 58.2569C383.006 58.2569 379.536 58.9267 376.199 60.2637C372.999 61.5618 370.094 63.4889 367.465 66.0009L386.915 46.5864L386.941 46.5594L386.967 46.5864Z" fill="#E11B22"/>
</svg>
