<svg width="62" height="67" viewBox="0 0 62 67" fill="none" xmlns="http://www.w3.org/2000/svg">
<path d="M58.9612 17.8818C57.4777 14.4112 55.3885 11.3438 52.6919 8.68023C50.0256 6.01406 46.8166 3.9029 43.0694 2.34148C39.3473 0.780711 35.2088 -1.53903e-06 30.6537 -1.33992e-06C26.178 -1.14428e-06 22.0679 0.780712 18.3207 2.34148C14.5193 3.9029 11.2574 6.04244 8.5323 8.76009C5.86472 11.4527 3.75973 14.5471 2.22463 18.0442C0.742422 21.5438 1.10637e-06 25.3108 1.28283e-06 29.3477L1.28992e-06 29.51C1.46402e-06 33.4928 0.742423 37.2465 2.22463 40.772C3.73395 44.271 5.80919 47.3265 8.45298 49.9353C10.866 52.2965 13.7042 54.211 16.9225 55.7249L26.4874 46.1769C25.7 45.9763 24.9278 45.7354 24.1847 45.4147C22.1895 44.5541 20.4508 43.3299 18.9679 41.7421C17.4857 40.1529 16.3248 38.311 15.4892 36.2104C14.6535 34.03 14.2357 31.7433 14.2357 29.3477L14.2357 29.188C14.2357 26.7112 14.6542 24.4232 15.4892 22.3246C16.3248 20.251 17.4857 18.4342 18.9679 16.8734C20.3688 15.2876 22.0553 14.0753 24.0228 13.2418C26.0193 12.3528 28.1739 11.9093 30.4938 11.9093C32.8109 11.9093 34.9543 12.3528 36.9224 13.2418C38.9176 14.1564 40.657 15.3945 42.1399 16.9546C43.6505 18.5154 44.8101 20.3606 45.6186 22.4849C46.4516 24.5849 46.8701 26.8722 46.8701 29.3477L46.8701 29.51C46.8701 31.9056 46.4516 34.1672 45.6186 36.2909C44.8359 38.4457 43.7041 40.2869 42.2212 41.8219C40.819 43.3827 39.1206 44.6082 37.126 45.4958C36.3598 45.8053 35.5638 46.0357 34.752 46.2264L44.233 55.69C47.4506 54.1794 50.2504 52.2781 52.5722 49.9346C55.296 47.1906 57.4261 44.0829 58.9625 40.6109C60.4447 37.0855 61.1858 33.3298 61.1858 29.347L61.1858 29.1873C61.1845 25.1498 60.4434 21.3808 58.9612 17.8818Z" fill="#17479E"/>
<path d="M30.661 46.7283L50.1711 66.202C47.5359 63.683 44.6237 61.7493 41.414 60.4473C38.0668 59.1062 34.5841 58.4344 30.9711 58.4344C30.9235 58.4344 30.8719 58.4344 30.8217 58.4344C30.7642 58.4344 30.7033 58.4404 30.6458 58.4443L30.6458 58.4456C30.6419 58.4456 30.6412 58.4456 30.6359 58.4456C30.6333 58.4456 30.6306 58.4456 30.6253 58.4456L30.6253 58.4443C30.5671 58.4404 30.5077 58.4344 30.4508 58.4344C30.3992 58.4344 30.3503 58.4344 30.3007 58.4344C26.6878 58.4344 23.2077 59.1062 19.8605 60.4473C16.6508 61.7493 13.7373 63.6823 11.0994 66.202L30.6095 46.7283L30.6353 46.7013L30.661 46.7283Z" fill="#E11B22"/>
</svg>
